<?xml version="1.0" standalone="no"?>
<!DOCTYPE svg PUBLIC "-//W3C//DTD SVG 20010904//EN"
 "http://www.w3.org/TR/2001/REC-SVG-20010904/DTD/svg10.dtd">
<svg version="1.0" xmlns="http://www.w3.org/2000/svg"
 width="500.000000pt" height="500.000000pt" viewBox="0 0 500.000000 500.000000"
 preserveAspectRatio="xMidYMid meet">

<g transform="translate(0.000000,500.000000) scale(0.100000,-0.100000)"
fill="#000000" stroke="none">
<path d="M0 2500 l0 -2500 2500 0 2500 0 0 2500 0 2500 -2500 0 -2500 0 0
-2500z m747 765 c46 -19 464 -432 501 -494 31 -53 33 -120 7 -172 -21 -40
-452 -466 -498 -491 -38 -22 -118 -23 -155 -4 -36 19 -78 65 -91 99 -7 19 -11
186 -11 483 0 427 1 457 19 492 45 87 140 124 228 87z m1003 -14 c77 -76 32
-201 -71 -201 -76 0 -123 44 -123 115 0 69 48 114 122 115 35 0 49 -6 72 -29z
m-496 8 c38 -9 73 -41 279 -247 130 -131 241 -250 246 -265 16 -41 13 -103 -5
-140 -19 -39 -447 -472 -487 -493 -92 -49 -287 19 -287 100 0 14 54 75 160
181 89 88 169 174 179 190 27 44 32 88 16 142 -12 40 -39 72 -184 218 -93 93
-172 180 -175 191 -13 42 59 104 141 123 53 13 68 13 117 0z m2246 -404 l0
-305 -50 0 c-49 0 -50 0 -50 31 l0 31 -35 -31 c-43 -37 -70 -45 -140 -39 -110
9 -187 103 -187 228 0 129 69 215 188 234 49 9 105 -11 147 -51 l27 -27 0 117
0 117 50 0 50 0 0 -305z m-1209 144 c55 -12 119 -60 145 -110 22 -43 18 -49
-35 -49 -41 0 -54 5 -79 29 -37 38 -73 47 -122 32 -89 -26 -117 -145 -54 -220
49 -59 143 -59 186 -1 19 26 28 30 70 30 41 0 48 -3 48 -19 0 -31 -61 -102
-110 -129 -39 -20 -55 -23 -116 -19 -59 3 -78 9 -116 35 -93 64 -124 191 -74
297 36 79 92 116 198 134 4 0 30 -4 59 -10z m554 -18 c49 -21 99 -76 115 -127
7 -22 11 -64 8 -104 -4 -54 -11 -76 -36 -112 -44 -64 -92 -90 -177 -95 -63 -4
-76 -2 -125 24 -40 21 -63 42 -85 78 -27 44 -30 57 -30 129 0 71 4 86 27 122
66 102 186 135 303 85z m1084 -4 c55 -28 98 -88 111 -154 16 -86 21 -83 -171
-83 -191 0 -195 -2 -136 -66 26 -28 42 -37 78 -41 41 -5 50 -2 81 26 30 26 44
31 87 31 62 0 65 -11 14 -70 -107 -124 -300 -102 -374 42 -54 105 -23 233 72
301 70 50 155 55 238 14z m460 5 c37 -17 71 -65 71 -99 0 -21 -5 -23 -50 -23
-37 0 -50 4 -50 14 0 21 -40 46 -74 46 -51 0 -86 -51 -53 -79 8 -6 46 -17 86
-26 120 -25 157 -58 155 -140 -2 -91 -77 -140 -203 -133 -78 4 -110 21 -148
78 -38 55 -32 70 27 70 28 0 50 -5 50 -10 0 -6 11 -22 25 -35 45 -46 145 -25
145 30 0 30 -17 40 -109 61 -97 22 -132 52 -138 120 -4 55 9 87 48 117 53 39
146 43 218 9z m-1459 -697 c0 -128 -1 -135 -20 -135 -12 0 -20 7 -20 17 0 15
-1 15 -18 0 -10 -10 -35 -17 -54 -17 -45 0 -88 45 -88 91 0 37 23 84 45 93 30
11 78 6 97 -11 17 -15 18 -14 18 40 0 50 2 57 20 57 19 0 20 -7 20 -135z m688
113 c2 -12 -5 -17 -25 -20 -20 -2 -29 -9 -31 -25 -3 -19 1 -23 22 -23 16 0 26
-6 26 -15 0 -9 -9 -15 -25 -15 -24 0 -25 -2 -25 -75 0 -68 -2 -75 -20 -75 -18
0 -20 7 -20 75 0 60 -3 75 -15 75 -8 0 -15 6 -15 14 0 8 7 16 15 20 8 3 15 15
15 26 0 48 89 83 98 38z m122 12 c19 -12 4 -27 -30 -32 -33 -4 -35 -42 -2 -46
31 -5 29 -32 -3 -32 -24 0 -25 -2 -25 -75 0 -68 -2 -75 -20 -75 -18 0 -20 7
-20 75 0 43 -4 75 -10 75 -5 0 -10 7 -10 15 0 8 5 15 10 15 6 0 10 10 10 23 0
49 59 83 100 57z m-1304 -91 c14 -15 20 -40 22 -94 l4 -73 -63 0 c-82 -1 -98
4 -110 35 -16 41 10 70 71 78 33 4 50 12 50 21 0 19 -40 27 -73 15 -33 -13
-49 6 -22 26 30 21 99 17 121 -8z m114 4 c0 -15 1 -15 18 0 10 10 34 17 52 17
56 0 70 -22 70 -112 0 -71 -2 -78 -20 -78 -18 0 -20 7 -20 63 0 68 -10 87 -46
87 -34 0 -54 -37 -54 -97 0 -46 -3 -53 -20 -53 -19 0 -20 7 -20 95 0 88 1 95
20 95 12 0 20 -7 20 -17z m676 3 c29 -22 5 -42 -33 -29 -54 19 -93 -17 -79
-73 8 -30 41 -44 80 -33 48 14 65 -9 21 -29 -75 -34 -145 6 -145 83 0 59 36
95 94 95 23 0 51 -6 62 -14z m216 -16 c27 -28 30 -36 25 -73 -8 -55 -43 -87
-98 -87 -55 0 -99 42 -99 95 0 87 109 128 172 65z m448 20 c17 -9 40 -58 40
-86 0 -11 -19 -14 -75 -14 -72 0 -75 -1 -65 -20 14 -25 52 -35 80 -20 32 17
53 -5 26 -26 -59 -43 -156 7 -156 81 0 71 86 119 150 85z m210 0 c17 -9 40
-58 40 -86 0 -11 -19 -14 -75 -14 -72 0 -75 -1 -65 -20 14 -25 52 -35 80 -20
32 17 53 -5 26 -26 -59 -43 -156 7 -156 81 0 71 86 119 150 85z"/>
<path d="M3213 2896 c-65 -29 -92 -119 -57 -191 38 -82 149 -94 208 -24 92
109 -23 272 -151 215z"/>
<path d="M2683 2894 c-119 -59 -76 -257 56 -257 135 0 180 194 60 255 -42 22
-74 22 -116 2z"/>
<path d="M3741 2884 c-17 -14 -31 -33 -31 -42 0 -15 13 -17 112 -15 124 2 130
7 77 56 -41 38 -114 39 -158 1z"/>
<path d="M2804 2300 c-43 -17 -42 -94 2 -110 59 -23 104 38 66 89 -21 29 -37
34 -68 21z"/>
<path d="M2327 2216 c-3 -8 1 -20 9 -27 20 -16 67 0 72 24 3 14 -4 17 -36 17
-25 0 -42 -5 -45 -14z"/>
<path d="M3345 2298 c-37 -21 -47 -59 -22 -90 23 -30 55 -31 82 -4 31 31 32
50 0 81 -27 28 -32 29 -60 13z"/>
<path d="M3798 2288 l-23 -23 54 -3 c63 -4 70 1 46 28 -24 26 -50 25 -77 -2z"/>
<path d="M4008 2288 l-23 -23 54 -3 c63 -4 70 1 46 28 -24 26 -50 25 -77 -2z"/>
</g>
</svg>
